<svg xmlns="http://www.w3.org/2000/svg" viewBox="0 0 128 160" x="0px" y="0px"><g><path d="M75.336,57.671c.068-.068.143-.122.211-.183-.992-1.664-2.133-3.226-2.995-4.958-.231.3-.428.577-.571.754C73.149,54.7,74.25,56.184,75.336,57.671Z"/><path d="M60.645,74.454a5.41,5.41,0,0,1-2.03,1.386c-.2.251-.394.516-.578.781a20.465,20.465,0,0,1,4.218-1.732A10.893,10.893,0,0,1,60.645,74.454Z"/><path d="M69.563,52.8a7.663,7.663,0,0,0-5.4-.007c-1.814.761-2.052,1.889-3.505,2.731a26.844,26.844,0,0,0-6.323,4.462c2.024,2.418,3.572,5.013,6.432,6.242C61.311,60.891,64.5,54.92,69.563,52.8Z"/><path d="M64.069,63.852A18.339,18.339,0,0,1,66.181,60.4,20.526,20.526,0,0,1,71.01,55.3c-.183-.224-.367-.449-.557-.673a11.734,11.734,0,0,0-5.895,5.855,17.1,17.1,0,0,0-1.467,4.082c-.116.53-.945,3.464.02,3.213a11.7,11.7,0,0,1,.2-1.99A17.243,17.243,0,0,1,64.069,63.852Z"/><path d="M48.046,47.252a9.353,9.353,0,0,1,2.011-2.309c.747-.537,1.562-1,2.248-1.6-.007-.014-.02-.027-.027-.041-2.058.177-4.694,3.233-5.631,4.646a36.02,36.02,0,0,0-2.941,5.956c.292.191.591.381.89.564A21.885,21.885,0,0,1,48.046,47.252Z"/><path d="M57.433,55.837a54.447,54.447,0,0,0,4.53-3.239,9.142,9.142,0,0,1,8.572-.734,16.639,16.639,0,0,1,2.112-2.092c-1.114-1.589-2.167-3.233-3.192-4.9a15.079,15.079,0,0,1-2.88,3.973,21.069,21.069,0,0,1-3.532,2.072,60.531,60.531,0,0,0-10.276,7.817c.238.123.475.238.706.36A15.388,15.388,0,0,1,57.433,55.837Z"/><path d="M59.47,51.7C61,50.682,62.6,49.867,64.17,48.95c2.181-1.277,3.132-2.914,4.4-4.978a.657.657,0,0,1,.2-.2c-1.48-2.418-2.94-4.849-4.523-7.186-.095.245-.2.475-.3.686-.075.163-.136.306-.19.428a5.058,5.058,0,0,0-.177.482c-.108.326-.21.652-.319.985-.4,1.352-.7,2.69-1.032,3.912a20.808,20.808,0,0,1-1.107,3.2,7.649,7.649,0,0,1-1.23,1.95c-.353.4-.577.6-.645.55s.041-.326.279-.8a12.738,12.738,0,0,0,.842-2,31.239,31.239,0,0,0,.835-3.152c.272-1.2.544-2.567.958-3.98.122-.36.231-.706.346-1.053.061-.156.109-.312.19-.5s.163-.36.238-.5a3.1,3.1,0,0,0,.462-1.44c-.808-1.141-1.65-2.255-2.547-3.328a45.442,45.442,0,0,1-2.941,4.754,20.725,20.725,0,0,0-2.7,4.008.827.827,0,0,1,0,.285,1.107,1.107,0,0,1-.224,1.1c-.231.279-.469.543-.714.8-1.161,1.82-3.45,2.465-4.72,4.251a22.893,22.893,0,0,0-3.858,7.9c1.909,1.087,3.912,2.052,5.889,3.036A67.658,67.658,0,0,1,59.47,51.7ZM53.5,50.635c.809-1.42,1.9-3.383,3.057-5.6s2.255-4.211,3.144-5.617c.9-1.385,1.542-2.18,1.671-2.1s-.258,1.025-.971,2.506c-.693,1.48-1.664,3.518-2.832,5.753a42.148,42.148,0,0,1-3.4,5.508c-1.026,1.311-1.766,2.031-1.882,1.936S52.665,52.027,53.5,50.635Z"/><path d="M76.423,59.478a1,1,0,0,1-.068.115,1.113,1.113,0,0,1-.088.313c-1.807,3.837-4.252,7.3-6.405,10.935.836.326,1.82.57,2.309-.048a24.554,24.554,0,0,0,1.352-2.547c1.318-2.126,2.812-4.129,4.293-6.147a1.05,1.05,0,0,1,.3-.278,20.994,20.994,0,0,0-1.385-2.669A4.252,4.252,0,0,0,76.423,59.478Z"/><path d="M60.306,29.525c.761.856,1.48,1.746,2.18,2.656A11.377,11.377,0,0,1,63.512,33.3a5.482,5.482,0,0,1,.523.767,3.2,3.2,0,0,1,.278.611c3.315,4.741,6.12,9.849,9.455,14.576a4.423,4.423,0,0,1,3.022.761c.136.068.265.142.4.21.02-.088.04-.17.061-.258-3.213-7.553-8.775-14.718-14.046-20.749-2.6-2.975-5.549-6.826-9.135-8.626a44.976,44.976,0,0,0-12.4-3.892,2.079,2.079,0,0,0-1.691,1.528c3.824.761,7.879,1.182,11.126,3.512A54.232,54.232,0,0,1,60.306,29.525Z"/><path d="M64.8,29.233c3.987,4.979,8.2,10.168,11.377,15.839-.863-3.084-1.549-6.038-2.235-8.7-.672-2.7-1.378-5.088-2.017-7.091-.686-1.963-1.243-3.566-1.725-4.646a5.771,5.771,0,0,1-.584-1.752c.075-.034.421.523.985,1.555a37.864,37.864,0,0,1,2.092,4.571c.74,1.99,1.535,4.394,2.268,7.091.754,2.7,1.474,5.671,2.343,8.755.191.686.381,1.338.571,2.03,1.759-11.22-.944-24.98-10.63-31.29a8.645,8.645,0,0,0-3.986-.713c-2.262.2-4.476.842-6.745,1.086-3.464.381-6.907.265-10.351.36A26.968,26.968,0,0,1,55.6,20.091,46.362,46.362,0,0,1,64.8,29.233Z"/><path d="M77.354,52.631c-.958-.495-2.133-1.439-3.2-1.6a.312.312,0,0,0-.075,0A38.226,38.226,0,0,0,77.211,56.3,8.253,8.253,0,0,0,80.56,54.35C79.514,53.759,78.447,53.2,77.354,52.631Z"/><path d="M74.182,59.525c-.842-1.147-1.678-2.3-2.54-3.416A21.338,21.338,0,0,0,66.093,62.3c-1.243,1.868-1.624,4.014-2.52,6.025,1.12,1.019,2.818,1.378,4.143,2.146C69.842,66.806,72.3,63.336,74.182,59.525Z"/><path d="M54.736,39.1c.551-.869,1.209-1.664,1.821-2.52A51.674,51.674,0,0,0,60,31.026a47.963,47.963,0,0,0-9.5-8.232,21.145,21.145,0,0,0-7.2-2.662,28.444,28.444,0,0,0,4.021,7.322c1.643,2.424,2.954,5.067,4.611,7.478C53.167,36.725,54.315,37.886,54.736,39.1Z"/><path d="M81.51,77.741c-.088-1.215-.19-2.424-.353-3.633-.129-.978-.278-2-.455-3.05a14.636,14.636,0,0,0-4.32-3.233c-.8,1.27-1.582,2.547-2.35,3.872-1.127,1.942-3.382,1.535-5.168.889-.245.442-.482.9-.713,1.352.264-.014.529-.027.794-.034C73.74,73.775,77.469,75.514,81.51,77.741Z"/><path d="M66.324,73.035c.285-.564.584-1.128.889-1.678-1.378-.822-3.043-1.209-4.245-2.214A12.155,12.155,0,0,1,61.854,72.7,12.841,12.841,0,0,0,66.324,73.035Z"/><path d="M86.733,74.481c.218,1.766.36,3.532.449,5.305,1.426-.788,3.606-2.011,3.294-2.452C89.579,76.05,88.071,75.337,86.733,74.481Z"/><path d="M53.072,104.033c.32-.047.632-.136.944-.156C53.3,102.159,50.8,102,48.882,102c-.428,0-.822.007-1.162.007-.04.679-.061.883-.088,1.27a6.049,6.049,0,0,1,4.877.9C52.7,104.135,52.882,104.067,53.072,104.033Z"/><path d="M78.542,49.847c.19.448.455.774.775.835l.04.014h.007l.116.007c.129.013.074-.034.095-.028a.829.829,0,0,0,.244-.163,2.88,2.88,0,0,0,.53-.7,16.42,16.42,0,0,0,1.324-3.58c.32-1.175.557-2.3.768-3.328.822-4.109,1.114-6.7,1.263-6.7s.163,2.643-.462,6.84c-.163,1.053-.36,2.194-.652,3.423a16.19,16.19,0,0,1-1.324,3.858,3.654,3.654,0,0,1-.727.985,1.69,1.69,0,0,1-.6.38c1.12.611,2.227,1.23,3.307,1.895,2.058-2.329,3.362-5.495,4.931-8.137,1.882-3.151,4.334-7.308,3.07-11.145-1.874-5.665-6.982-10.351-12.151-13.088a22.951,22.951,0,0,1-6.88-2.982C79.466,26.3,80.906,39.543,78.542,49.847Z"/><path d="M93.593,45.493c.034-2.465.489-4.985.34-7.444a16.808,16.808,0,0,0-2.52-7.383c-1.99-3.443-4.381-6.275-7.668-7.953,4.1,3.043,7.688,7.247,8.87,12.062.842,3.451-1.053,7.383-2.764,10.256-1.78,2.989-3.253,6.555-5.563,9.224a27.372,27.372,0,0,1,3.478,2.71,22.652,22.652,0,0,1,2.744-2.16C93.213,52.781,93.559,48.611,93.593,45.493Z"/><path d="M93.688,30.6c.116.231.218.469.32.7.21-.346.421-.693.638-1.026a32.376,32.376,0,0,0,1.087-4.1c.638-3.8-1.114-5.6-4.761-6.5-5.217-1.29-10.406-2.6-15.649-3.776a6.4,6.4,0,0,0-.672,1.46c2.743,1.487,5.555,1.6,8.354,2.73C87.922,22.074,91.359,25.878,93.688,30.6Z"/><path d="M40.018,19.48a13.639,13.639,0,0,0,1.155,3.572A32.209,32.209,0,0,0,44.61,28.9a69.128,69.128,0,0,0,8.435,9.794c-.53-1.052-1.467-2.058-2.166-3.144-1.209-1.888-2.242-3.878-3.464-5.753-2.1-3.213-4.449-6.2-5.475-9.937C41.3,19.731,40.663,19.609,40.018,19.48Z"/><path d="M95.685,20.329a4.647,4.647,0,0,1,.489.577,31.9,31.9,0,0,1,8.524-1.637,81.84,81.84,0,0,0-14.833-4.442c-3.879-.869-10.392-2.954-13.666.014,4.218.958,8.395,2,12.592,3.036C90.89,18.4,94.062,18.712,95.685,20.329Z"/><path d="M38.653,82.666c-1.182-.877-2.832-1.875-4.408-3.009.5,2.771,3.9,4.707,6.065,6.235,1.42,1.005,3.7,2.791,5.522,2.554,1.012-.136,1.63-1.182,2.017-2.242C44.542,87.182,41.6,84.832,38.653,82.666Z"/><path d="M43.027,79.426c1.718.754,3.7,1.827,5.495.462a9.516,9.516,0,0,0,2.947-3.879,8.969,8.969,0,0,1,1.95-3,23.182,23.182,0,0,0-3.675-2.139c-3.138-1.386-6.364-1.223-9.685-1.617a25.524,25.524,0,0,1-5.257-1.2C30.1,73.225,38.911,77.626,43.027,79.426Z"/><path d="M47.652,106.22a14.251,14.251,0,0,1,3.458-1.657,5.84,5.84,0,0,0-3.505-.109C47.6,105.038,47.612,105.629,47.652,106.22Z"/><path d="M61.012,68.491c-3.47-1.033-5.3-3.62-7.478-6.3-.835,2.764-3.43,4.618-6.3,5.637a13.794,13.794,0,0,1,1.481.441c3.491,1.284,6.343,3.546,9.434,5.549C59.973,72.933,60.8,70.386,61.012,68.491Z"/><path d="M56.136,74.916a43.389,43.389,0,0,0-2.724,5.515,11.572,11.572,0,0,1-3.579,4.8C49.4,87,48.59,89.437,46.7,89.96c-2.092.577-4.768-.937-6.385-2.078-3.47-2.452-8.075-4.836-7.688-9.489a14.954,14.954,0,0,1-1.494-1.453,8.078,8.078,0,0,0,1.263,6.412,22.789,22.789,0,0,0,5.617,5.99c2.88,1.956,9.685,6.208,12.015,1.977,2.751-4.993,3.579-11.207,6.88-15.887C56.645,75.262,56.394,75.093,56.136,74.916Z"/><path d="M33.661,76.322c2.561,2.031,5.169,4.028,7.851,5.9,2.242,1.562,5.38,3.525,7.723.815A15.3,15.3,0,0,0,51.5,79.433a37.141,37.141,0,0,1,2.975-5.692,2.531,2.531,0,0,1-.217-.15c-2.6,1.515-2.622,6.466-6.058,7.621-2.792.937-5.753-.808-8.185-2.105-4.367-2.316-10.269-6.595-6.242-11.431-.088-.034-.176-.075-.264-.109C31.2,70.311,30.618,73.918,33.661,76.322Z"/><path d="M46.559,94.81c-.082-.021-.17-.041-.258-.062a25.269,25.269,0,0,0-1.9,5.957,14.821,14.821,0,0,0-.21,2.479.87.87,0,0,1,.006.679,12.659,12.659,0,0,0,1.08,4.3c.272-.279.557-.537.849-.788a.641.641,0,0,1-.027-.1c-.489-4.272.319-8.3,1.42-12.375A4.314,4.314,0,0,1,46.559,94.81Z"/><path d="M49.955,62.045c.061-.047.122-.1.183-.156-5.447-2.662-12.354-5.719-15.811-10.9a12.906,12.906,0,0,0-.51,1.188C36.575,57.467,44.345,60.945,49.955,62.045Z"/><path d="M43.591,108.366a6.073,6.073,0,0,0-.944,3.417,14.153,14.153,0,0,1,1.446-2.276C43.91,109.107,43.74,108.726,43.591,108.366Z"/><path d="M51.633,112.734a3.653,3.653,0,0,0-2.249,2.289c-.292,1.3.347,2.282,1.753,1.949a3.462,3.462,0,0,0,1.915-2.2C53.337,113.793,53.038,112.238,51.633,112.734Z"/><path d="M43.163,107.246a11.707,11.707,0,0,1-.455-1.644,8.23,8.23,0,0,0-2.235,5.339,6.722,6.722,0,0,0,.992,4.1.787.787,0,0,0,.027-.122c.109-.462.251-.917.4-1.366A7.082,7.082,0,0,1,43.163,107.246Z"/><path d="M91.44,91.583a7.247,7.247,0,0,0-4.075,6.738c.19,3.661,3.763,3.933,6.269,2.119,2.33-1.691,4.639-4.707,3.9-7.736C96.446,89.885,93.614,90.436,91.44,91.583Zm3.518,4.381a4.138,4.138,0,0,1-2.472,3.342,2.116,2.116,0,0,1-2.778-2.343,4.147,4.147,0,0,1,2.731-3.369A2.019,2.019,0,0,1,94.958,95.964Z"/><path d="M85.592,92.072a1.119,1.119,0,0,1-.108-.421c-.279-5.963.2-12.083-.9-17.985a69.085,69.085,0,0,0-5.169-16.042,10.232,10.232,0,0,1-.978.414C81.1,62.256,82.4,68.1,83.025,72.8c.917,6.934.509,13.944,1.358,20.885v.075c.028.04.048.081.075.122.068.1.075.115.027.034a.374.374,0,0,0,.048.054A13.118,13.118,0,0,1,85.592,92.072Z"/><path d="M44.711,94.334a23.747,23.747,0,0,1-11.682-7.451,24.978,24.978,0,0,1-1.6-2.166c-.2.326-.394.679-.577,1.039,1.915,1.372,3.118,3.627,4.761,5.3,2.466,2.506,4.626,4.985,8,6.153C43.937,96.229,44.311,95.278,44.711,94.334Z"/><path d="M51.11,109.2c-2.69,1.127-4.884,3.049-5.339,6.092-.319,2.1-.075,4.551,2.445,5.013a5.4,5.4,0,0,0,4.1-.91c2.717-1.746,5.685-5.108,4.789-8.592C56.027,108.115,53.405,108.244,51.11,109.2Zm3.07,5.182a4.555,4.555,0,0,1-2.772,3.566,2.352,2.352,0,0,1-3.117-2.54,4.428,4.428,0,0,1,3.294-3.716A2.24,2.24,0,0,1,54.18,114.384Z"/><path d="M68.945,75.33c-4.564.231-8.748,1.121-12.429,3.96-.421.863-.8,1.773-1.155,2.69a27.086,27.086,0,0,1,12.477-5.57c5.2-.89,9.726,1.359,13.835,4.279-.02-.421-.034-.842-.061-1.256C77.551,77.157,73.754,75.086,68.945,75.33Z"/><path d="M64.938,84.8c.231-.122.516-.258.849-.414.163-.075.346-.156.53-.245.2-.067.414-.142.631-.217a34.334,34.334,0,0,1,7.105-1.61c2.5-.319,4.775-.516,6.54-.645-3.966-2.751-8.333-4.8-13.312-3.715a25.213,25.213,0,0,0-12.945,6.887c-.082.238-.156.469-.238.706a7.131,7.131,0,0,1,1.256-.536c.8-.251,1.6-.394,2.391-.577l.163-.041h.014l.027-.014.082-.02.326-.095c.217-.061.427-.129.645-.19.421-.123.842-.238,1.256-.36.822-.238,1.617-.449,2.377-.652,1.522-.388,2.853-.782,3.994-1.074,2.269-.672,3.688-1.114,3.749-.95.048.135-1.249.835-3.47,1.711-1.121.4-2.479.89-3.98,1.331-.754.224-1.542.462-2.357.713-.408.123-.822.245-1.243.374-.211.061-.421.129-.632.19l-.326.095-.2.055-.17.04c-.815.191-1.609.333-2.316.544a5.1,5.1,0,0,0-1.331.577.292.292,0,0,0,.048.041c2.03.971,4.082,2.35,6.275,2.751,2.418.448,4.823-1.97,6.928-2.873a112.21,112.21,0,0,1,10.8-3.695c-1.283.183-2.7.366-4.2.557a69.475,69.475,0,0,0-7,1.243c-.224.047-.434.095-.631.135s-.394.109-.571.157c-.353.1-.658.176-.917.237-.5.109-.794.136-.821.068S64.476,85.043,64.938,84.8Z"/><path d="M51.578,106.519c-3.477,1.243-7.023,4.245-7.892,7.953-.706,3.03-.041,6.079,3.274,7.037a7.526,7.526,0,0,0,6.065-.408,11.35,11.35,0,0,0,6.228-10.731C58.859,106.24,55.069,105.262,51.578,106.519ZM51.4,120.993c-2.826,1.29-6.684-.224-6.779-3.607a9.113,9.113,0,0,1,6.222-9.169c3-1.107,5.936-.951,7.247,2.316C59.246,115.029,55.192,119.268,51.4,120.993Z"/><path d="M92.69,94.484A3.317,3.317,0,0,0,90.7,96.6c-.245,1.141.251,2.132,1.542,1.813a3.183,3.183,0,0,0,1.725-2.153C94.177,95.414,93.892,94.035,92.69,94.484Z"/><path d="M32.88,51.823c.007-.02.007-.034.013-.047.163-.381.306-.775.49-1.148-2.072.312-4.388,1.65-4.931,3.545,1.045-1.2,2.968-1.861,4.4-2.35Z"/><path d="M21.116,96.182c-.577,1.874-.985,4.4,1.168,5.508a5.778,5.778,0,0,0,4.612.618,8.524,8.524,0,0,0,5.712-8.5C31.949,86.9,22.312,92.276,21.116,96.182ZM26.7,101.8c-2.126.964-5.026-.17-5.1-2.717a6.861,6.861,0,0,1,4.68-6.9c2.262-.828,4.469-.713,5.454,1.746C32.6,97.309,29.552,100.5,26.7,101.8Z"/><path d="M19.52,95.856a2.335,2.335,0,0,1-.577-2.249,6.822,6.822,0,0,1,1.521-3.151,6.98,6.98,0,0,1,5.352-2.384c.014-.17.055-.34.075-.509a7.646,7.646,0,0,0-1.263.02c-4.361,1.182-7.8,5.631-5.38,9.692,0-.013.014-.034.014-.047.075-.306.183-.612.285-.911h.041c-.088-.081-.068-.2-.068-.366Z"/><path d="M36.3,66.494c2.758.74,5.726.632,8.578.951,3.519-.734,7.261-2.724,7.838-6.222-.1-.115-.2-.231-.3-.346a.269.269,0,0,0-.034-.048c-6.14-3.151-12.415-5.8-16.62-11.492a.578.578,0,0,1-.2-.1,3.237,3.237,0,0,0-1.114-.578,1.571,1.571,0,0,1-.3-.156c-3.729.971-9.855,3.5-8.47,8.327C27.018,61.481,31.671,65.244,36.3,66.494Zm-8.612-13.36a7.7,7.7,0,0,1,6.316-3.593.447.447,0,0,1,.279.075.541.541,0,0,1,.53.312.529.529,0,0,1,.088.089c3.335,5.467,10.894,8.585,16.4,11.308a.473.473,0,0,1,.054.808.5.5,0,0,1-.068.109c-4.951,4.951-16.892,2.221-21.306-2.35C28.465,58.316,26.285,55.471,27.691,53.134Z"/><path d="M106.525,9.971a60.677,60.677,0,0,0-7.519-3.029c-3.477-1.182-9.1-3.05-12.116.048-1.345,1.385-2.371,2.974-3.777,4.265.652.115,1.318.265,2,.421,3.226-4.795,7.315-5.733,12.66-3.355,2.547,1.134,6.3,1.983,8.348,3.973,2,1.949,1.433,3.4.536,5.631.421.19.836.393,1.25.6.007,0,.014.007.02.014C109.493,15.357,110.709,12.063,106.525,9.971Z"/><path d="M34.483,61.7c3.634,1.542,10.052,3.043,14.188,1.114-5.753-1.338-12.837-4.734-15.655-9.971-1.671.564-4.768,1.481-4.232,3.749a.431.431,0,0,1,0,.095q.113.2.245.408A12.375,12.375,0,0,0,34.483,61.7Z"/><path d="M28.662,86.8a14.564,14.564,0,0,1,1.644-3.376.906.906,0,0,1,.237-.244,10.709,10.709,0,0,1-.835-2.289,25.62,25.62,0,0,0-2.044,5.474A4.707,4.707,0,0,1,28.662,86.8Z"/><path d="M92.642,88.724c-3.137,1.175-6.235,4.028-6.982,7.369-.611,2.724-.129,5.617,2.887,6.527a6.381,6.381,0,0,0,5.359-.38,10.611,10.611,0,0,0,5.515-9.93C99.088,88.6,95.855,87.522,92.642,88.724Zm-.231,13.428c-2.519,1.154-5.786-.306-5.936-3.226a8.384,8.384,0,0,1,5.509-8.6c2.71-1.046,5.3-.829,6.438,2.133C99.428,96.555,95.916,100.542,92.411,102.152Z"/><path d="M25.748,89.7a.648.648,0,0,1-.034-.17c.007-.142.021-.292.028-.434a5.661,5.661,0,0,0-4.279,1.732c-.686.862-1.984,2.377-1.59,3.593.061.183.129.36.2.529A11,11,0,0,1,25.748,89.7Z"/><path d="M26.482,92.921a6.021,6.021,0,0,0-4.021,4.585c-.238,1.583-.054,3.43,1.841,3.776a4.105,4.105,0,0,0,3.09-.686c2.044-1.317,4.272-3.844,3.6-6.466C30.183,92.106,28.207,92.2,26.482,92.921Zm2.309,3.906a3.425,3.425,0,0,1-2.085,2.683,1.778,1.778,0,0,1-2.35-1.916A3.323,3.323,0,0,1,26.835,94.8,1.685,1.685,0,0,1,28.791,96.827Z"/><path d="M26.876,95.584A2.738,2.738,0,0,0,25.185,97.3c-.225.978.258,1.719,1.317,1.467a2.6,2.6,0,0,0,1.44-1.657C28.159,96.379,27.935,95.21,26.876,95.584Z"/><path d="M96.779,27.413a18.092,18.092,0,0,1,2.153-2.106c2.2-1.793,5.073-2.669,7.525-4.061v-.931c-3.253.347-6.608.469-9.685,1.658A8.853,8.853,0,0,1,96.779,27.413Z"/></g><text x="0" y="143" fill="#000000" font-size="5px" font-weight="bold" font-family="'Helvetica Neue', Helvetica, Arial-Unicode, Arial, Sans-serif">Created by Hey Rabbit</text><text x="0" y="148" fill="#000000" font-size="5px" font-weight="bold" font-family="'Helvetica Neue', Helvetica, Arial-Unicode, Arial, Sans-serif">from the Noun Project</text></svg>