<svg xmlns="http://www.w3.org/2000/svg" version="1.1" viewBox="-5.0 -10.0 110.0 135.0">
 <path d="m76.164 69.77-3.4844-0.95312c-0.20703-0.058594-0.42188-0.089844-0.63672-0.09375-0.75391-0.023437-1.5195 0.25781-2.2461 0.78516l-3.3516-17.496c0.96094-0.79297 1.7734-2.125 2.2266-3.7695 0.36719-1.3477 0.42578-2.7109 0.16016-3.8359-0.17969-0.76172-0.49609-1.3711-0.92578-1.8125l16.176-25.398c0.023438-0.035156 0.046875-0.074218 0.066407-0.10937 0.25781-0.44531 2.457-4.4531 0.66406-7.668-0.73438-1.3125-2.3555-2.8984-5.918-3.0117l-18.094-0.5625-2.625-2.457c-0.41016-0.50391-0.74219-0.71484-0.92578-0.79688-0.015625-0.007813-0.03125-0.011719-0.046875-0.019532-0.015625-0.007812-0.03125-0.011718-0.046875-0.019531-0.10547-0.035156-0.21875-0.054687-0.32812-0.054687-0.015625 0-0.03125 0-0.046875 0.003906-0.019531 0-0.035156 0-0.054688 0.003906l-22.25 2.5859c-1.9258 0.17969-3.2812 0.96094-4.043 2.3281-2.0703 3.7266 1.2539 10.949 4.7031 16.75-0.98047 0.39453-1.6289 1.0078-2.0195 1.8789-1.0625 2.3828-0.41406 4.8086 0.36328 6.3008-2.3594 3.5664-5.3203 8.0547-7.5664 11.504-3.1445 4.8203-3.9414 8.5664-2.4375 11.449 1.0625 2.0391 3.1055 3.3555 6.1797 3.9844l-10.305 15.094c-1.7695 0.89453-3.4141 3.3359-4.2969 6.5664-1.2461 4.5625-0.35938 8.5039 2.0664 9.168l3.3086 0.90234c0.19922 0.054687 0.40625 0.085937 0.61328 0.09375 2.2969 0.070313 4.6914-2.7773 5.8281-6.9336 0.55469-2.0195 0.69922-4.0391 0.41406-5.6836-0.26562-1.5391-0.89453-2.6445-1.8008-3.1914l0.39453-0.57812c3.2773 4.1094 7.8242 5.7734 10.395 6.4141-1.2344 1.2852-2.3125 3.2891-2.9766 5.7227-1.3086 4.7812-0.38672 8.9062 2.1406 9.5977l3.4844 0.95312c0.20703 0.058594 0.42188 0.089844 0.63672 0.09375 2.3945 0.074219 4.8984-2.9141 6.0898-7.2695 1.0547-3.8633 0.65625-7.2969-0.86719-8.8359 11.934-1.6289 17.715-5.5938 20.102-7.8203l0.63281 3.3008c0.027344 0.15234 0.070313 0.30078 0.125 0.44141-0.8125 4.1992 0.16016 7.6445 2.4492 8.2734l3.4844 0.94922c0.20703 0.058593 0.42188 0.089843 0.63672 0.097656 2.3945 0.074219 4.8984-2.9141 6.0898-7.2695 1.3125-4.7852 0.39062-8.9102-2.1367-9.6016zm-52.367 1.5742c0.26953 0.58594 0.56641 1.1367 0.88281 1.6562l-1.1367 1.6602-1.6953-0.46484zm-5.4375 10.504c-0.14453 0.52734-0.25781 1.0586-0.34766 1.5742-0.25 1.4766-0.27734 2.8945-0.066407 4.1055 0.050782 0.29297 0.11328 0.56641 0.19141 0.82422l-0.5-0.13672c-0.84375-0.23047-1.5195-2.375-0.99219-5.4062 0.074219-0.43359 0.17578-0.88281 0.30078-1.3516 0.92969-3.4062 2.6562-5.2773 3.6797-5.4727 0.066406-0.015625 0.13281-0.019531 0.19141-0.019531 0.054688 0.003906 0.10547 0.011718 0.15625 0.023437l0.49219 0.13281c-1.2344 1.1484-2.3203 3.0352-3.0117 5.3633-0.023437 0.12109-0.058594 0.24219-0.09375 0.36328zm6.6172 1.8047c-0.72656 2.6523-1.9297 4.3711-2.9141 5.0977-0.36328 0.26562-0.69531 0.40234-0.96094 0.39453-0.054687-0.003906-0.10547-0.011719-0.16016-0.023437-0.29688-0.082032-0.56641-0.40234-0.77344-0.89062-0.12109-0.28906-0.22266-0.64062-0.29297-1.0352-0.21094-1.2109-0.11719-2.7578 0.24609-4.3086 0.039062-0.17578 0.082031-0.34766 0.12891-0.51953 0.72656-2.6523 1.9297-4.3711 2.9141-5.0977 0.36328-0.26953 0.69531-0.40234 0.96094-0.39453 0.054688 0.003906 0.10547 0.011719 0.15625 0.023438 0.027344 0.007812 0.054688 0.023437 0.082031 0.035156 0.26562 0.11328 0.50781 0.41016 0.69141 0.85156 0.125 0.28906 0.22266 0.64453 0.29297 1.0391 0.23828 1.3477 0.10156 3.1055-0.37109 4.8281zm41.801-35.926c-0.20312 0.74219-0.48828 1.3594-0.80078 1.8477-0.14453 0.22656-0.28906 0.42188-0.4375 0.58594-0.41016 0.46484-0.82031 0.70312-1.1055 0.69531-0.035156 0-0.066406-0.007813-0.10156-0.015625-0.042969-0.011719-0.082031-0.03125-0.12109-0.058594-0.007813-0.003906-0.011719-0.007812-0.019532-0.011719-0.21875-0.15234-0.41016-0.50781-0.51953-0.98438-0.011719-0.046875-0.019531-0.097656-0.027344-0.14453-0.082031-0.42969-0.10156-0.92188-0.058593-1.4375 0.015624-0.17188 0.035156-0.34375 0.0625-0.51953 0-0.003906 0-0.007813 0.003906-0.011719 0.039062-0.25391 0.097656-0.50781 0.16406-0.75781 0.070313-0.25781 0.14844-0.49609 0.23828-0.72266 0.28125-0.73438 0.64453-1.3047 1.0039-1.7109 0.41016-0.46484 0.82031-0.70703 1.1055-0.69531 0.035157 0 0.066407 0.003906 0.10156 0.015625 0.1875 0.050781 0.36719 0.26562 0.50781 0.58203 0.0625 0.14063 0.11328 0.29688 0.15234 0.47266 0.011719 0.046875 0.019531 0.097656 0.027344 0.14453 0.14453 0.78125 0.085937 1.7656-0.17578 2.7266zm-5.0469 2.3555c-0.22656-0.18359-0.42188-0.58203-0.52344-1.1445-0.09375-0.52344-0.10547-1.1797 0.015625-1.9219 0.007813-0.046875 0.019532-0.09375 0.027344-0.13672 0.019531-0.11328 0.046875-0.23047 0.070312-0.34766 0.019532-0.089844 0.042969-0.17969 0.066407-0.26953 0.40234-1.4727 1.1289-2.457 1.7305-2.8828 0.1875-0.13281 0.35937-0.21094 0.50781-0.23438-0.50781 0.55859-0.94922 1.2695-1.3008 2.1016-0.12109 0.29297-0.23047 0.60156-0.32812 0.92188-0.023438 0.082031-0.050782 0.16016-0.074219 0.24219-0.039063 0.14844-0.078125 0.30078-0.10938 0.44922-0.035156 0.17188-0.070312 0.33984-0.097656 0.51172-0.082032 0.49219-0.11719 0.98047-0.11328 1.4453 0.003907 0.44141 0.046876 0.86719 0.12891 1.2656zm0.76172 10.98-4.3242-1.3867 3.168-4.6406zm-2.9961-15.324c-0.24609 0.90234-0.34766 1.7734-0.32422 2.5664l-6.6836 9.7812-6.5938-0.20313c2.6406-1.2617 4.7891-3.2266 6.9453-6.1094 2.8164-3.7734 8.6055-13.469 12.074-19.379l-1.1172 6.2539-2.1602 3.3945c-0.92188 0.79688-1.7031 2.0977-2.1406 3.6953zm19.34-37.371c2.0938 0.066406 3.5664 0.75781 4.2656 2.0078 1.2891 2.3086-0.57031 5.5977-0.65234 5.7344l-16.32 25.625-1.6758-0.45703 16.551-25.988c0.011719-0.015624 0.019532-0.03125 0.03125-0.050781 0.015625-0.027343 1.4336-2.6094 0.61328-4.0625-0.40234-0.71875-1.3672-1.1055-2.8633-1.1484l-13.977-0.4375-1.8398-1.7188zm-11.523 15.906c3.4141-4.8945 3.7852-8.0625 3.8086-8.2461 0.03125-0.30469-0.082032-0.60547-0.30469-0.81641l-3.8359-3.5898 11.746 0.36328c0.6875 0.019531 1.0625 0.13281 1.2148 0.20312 0.035156 0.35156-0.17969 1.293-0.60547 2.0703l-12.758 20.031 1.2305-6.8711c0.50781-1.0625 0.29297-2.3164-0.49609-3.1445zm-7.125-16.316 8.8906 8.3203c-0.32031 1.3672-1.7148 5.7227-7.2266 11.559 0.12109-10.148-0.6875-16.234-1.6641-19.879zm-3.6875-3.4492 0.30078 0.28125c0.85938 1.1953 2.9102 5.4805 3.0898 19.145-1.6836-4.8711-4.3438-11.324-7.3906-14.121-2.4141-2.2188-4.457-3.4102-6.7852-4.0508zm-4.5039 13.727c0.60938-2.1875 1.4531-2.9375 1.957-3.1953 2.9844 5.3125 5.3008 13.242 5.8164 15.09-0.10547 0.18359-0.21875 0.37109-0.33203 0.5625-0.69141-1.6172-1.8398-3.2891-3.7227-4.082-1.0781-0.45312-3.5039-1.0703-6.2422-1.6211 1.1953-2.9336 2.168-5.4648 2.5234-6.7539zm-4.4883 6.3789c-0.76172-0.13672-1.5273-0.26562-2.2812-0.37891 0.89063-1.5469 2.5312-4.332 4.3516-7.1406 0.55469-0.85156 1.082-1.4648 1.5625-1.8984-0.38281 0.64063-0.73828 1.4609-1.0312 2.5156-0.35547 1.2656-1.3672 3.8789-2.6016 6.9023zm3.668-13.359c0.34375 0.31641 0.68359 0.69141 1.0195 1.1094-1.1875 0.33984-2.7188 1.2891-4.2617 3.6641-2.1602 3.3242-4.0625 6.6211-4.8047 7.9219-0.48438-0.058594-0.94922-0.10938-1.3906-0.15234-0.085937-1.8164-0.26562-6.2227-0.14844-9.8906 0.10938-3.4688 3.1445-5.4844 4.1602-6.0625 1.8438 0.59766 3.4961 1.6367 5.4258 3.4102zm-19.027-2.8867c0.39062-0.70313 1.1055-1.1289 2.1758-1.2891 0.011719 0 0.019531-0.003906 0.027343-0.003906l0.34766-0.039063c0.19531-0.015625 0.40234-0.023437 0.62109-0.027344 3.2852-0.015624 5.7422-0.027343 7.8086 0.24609-1.5547 1.2656-3.4023 3.4258-3.5039 6.582-0.10938 3.5859 0.050781 7.8438 0.14062 9.8125-0.09375-0.003907-0.19141-0.007813-0.28516-0.011719-0.875-0.027344-1.6484-0.003907-2.332 0.066406-4.418-7.3008-6.2891-13.012-5-15.336zm2.7617 18.477c0.16016-0.35938 0.51562-1.1484 3.2891-1.2422 0.36328-0.011718 0.76953-0.011718 1.2188 0 0.63281 0.019532 1.3359 0.066407 2.1016 0.14063 0.9375 0.089843 1.9805 0.21875 3.1445 0.39062 0.67578 0.10156 1.3711 0.21484 2.0703 0.33594 0.66016 0.11719 1.3242 0.23828 1.9727 0.36719 2.7461 0.54297 5.2461 1.1602 6.2422 1.5781 1.8359 0.77344 2.7422 2.8945 3.1797 4.4805 0.27734 1.0078 0.36328 1.8008 0.37109 1.8828 0.019531 0.22266-0.042969 0.4375-0.18359 0.60938s-0.33984 0.27734-0.55859 0.30078c-0.43359 0.042969-0.8125-0.25391-0.89453-0.66797-0.003906-0.027343-0.015625-0.054687-0.015625-0.082031-0.12109-1.1406-0.8125-4.2656-2.5391-4.9922-1.1523-0.48437-3.5664-1.0664-6.2422-1.5664-0.64844-0.12109-1.3164-0.23828-1.9844-0.34766-1.2109-0.19922-2.4258-0.375-3.5586-0.50781-0.78125-0.09375-1.5273-0.16797-2.2031-0.21875-0.37109-0.027344-0.71875-0.046876-1.043-0.058594-0.054688-0.003906-0.10938-0.003906-0.16016-0.007813-0.94531-0.027343-1.6484 0.011719-2.1406 0.12109-0.09375 0.019531-0.18359 0.054687-0.26172 0.10156-0.24609 0.13672-0.42578 0.37891-0.48438 0.66406-0.003907 0.027344-0.007813 0.054688-0.011719 0.082031-0.19922 1.1797 0.34375 2.2656 0.58594 2.6719 0.0625 0.10547 0.10547 0.16406 0.10547 0.16797 0.12891 0.17969 0.17969 0.39844 0.14453 0.61719-0.035157 0.21875-0.15625 0.41016-0.33594 0.53906-0.1875 0.13672-0.37891 0.15625-0.50781 0.15234-0.11719-0.003907-0.23047-0.035157-0.33203-0.082031-0.125-0.058594-0.23438-0.14844-0.32031-0.26563-0.26953-0.37891-0.57031-0.94531-0.78125-1.625-0.3125-1.0234-0.42188-2.293 0.13281-3.5391zm7.1875 2.6172c0.003906-0.003907 0.003906-0.007813 0.007813-0.011719 1.0195 0.11719 2.1055 0.27344 3.1992 0.44922-1.8594 4.3867-3.6875 8.5547-4.3555 10.074l-5.6875-0.17578c3.3945-5.1602 6.6328-10.031 6.8359-10.336zm-3.8906-0.26563c0.22656-0.007812 0.50781-0.007812 0.85547 0.003907 0.25781 0.007812 0.53516 0.023437 0.82422 0.039062-0.25781 0.39062-0.58984 0.88672-0.97656 1.4727-0.085937-0.27734-0.21094-0.54297-0.38281-0.78125-0.082032-0.125-0.23047-0.41016-0.32031-0.73438zm3.3359 12.754h0.003906 0.003906l10.883 0.33984c-1.5977 2.5508-3.0586 4.7891-4.0664 6.1367-3.375 4.5156-5.9648 5.9727-14.648 5.7031-3.4141-0.10547-4.9844-0.82422-5.2891-1.4102-0.074219-0.14453-0.64453-1.5156 2.1602-5.8164 1.0234-1.5703 2.1992-3.3633 3.3984-5.1875zm1.5195-1.9141c0.86328-1.9688 2.543-5.8164 4.2266-9.7969 2.7578 0.50391 5.2461 1.0938 6.2617 1.5195 0.45703 0.19141 1.1875 1.8281 1.3516 3.3828 0.066406 0.68359 0.38281 1.2891 0.85156 1.7383-0.70312 1.1641-1.418 2.3438-2.125 3.4883-0.007812 0-0.011718-0.003907-0.015625-0.003907zm-17.844 14.359c-1.1484-2.1992-0.38281-5.2969 2.3398-9.4727 2.1445-3.2891 4.9375-7.5273 7.2383-11.004 0.40234 0.24609 0.86719 0.38672 1.3555 0.40234 0.12891 0.003907 0.25391-0.003906 0.37891-0.015624-2.3555 3.5625-5.3125 8.0391-7.582 11.523-2.332 3.5742-3.0898 6.1992-2.2578 7.7969 0.78906 1.5156 3.1367 2.3477 6.9688 2.4648 9.6211 0.30078 12.68-1.668 16.281-6.4883 1.7383-2.3242 4.6914-7.0586 7.6406-11.949h0.011719c0.12109 0.003906 0.24609 0 0.36719-0.011719 0.74219-0.074219 1.4102-0.43359 1.8828-1.0117s0.69141-1.3047 0.61328-2.0469c-0.015625-0.16797-0.074219-0.67969-0.22656-1.3711 0.47266-0.79688 0.93359-1.5781 1.3789-2.332 1.8125-1.7578 3.2812-3.4102 4.4688-4.9336 0.070313 0.21875 0.058594 0.46094-0.066406 0.67578-0.4375 0.75781-10.723 18.598-14.742 23.977-3.4531 4.6211-6.6562 6.5898-12.469 7.0664h-0.003906c-0.070313-0.003906-0.14062 0.003907-0.21094 0.015626-0.92188 0.070312-1.9102 0.10156-2.9766 0.10156h-0.023437c-0.63281 0-1.293-0.007812-1.9805-0.03125-4.5391-0.14453-7.2812-1.2422-8.3867-3.3555zm16.359 5.3125-8.6602 4.707 3.1953-4.6797c0.92188-0.011719 1.7891-0.050781 2.6172-0.11328h0.003906zm-9.7578-0.10547c0.55078 0.054688 1.1211 0.089844 1.7266 0.10938 0.070313 0.003906 0.13672 0.003906 0.20703 0.003906l-4.6172 6.7578-3.1953 1.7383zm-6.1992 11.012 19.641-10.676c0.058593-0.03125 0.11328-0.070312 0.16406-0.10938l5.7539 0.17969-13.297 19.457c-2.0391-0.37891-9.082-2.1484-12.262-8.8516zm11.164 17.195c-0.57812 2.1211-0.73438 4.2422-0.4375 5.9648 0.058594 0.33984 0.13672 0.65625 0.22656 0.95703l-0.61719-0.16797c-1.0352-0.28125-1.8477-3.2266-0.76562-7.1875 0.26172-0.95703 0.58203-1.8008 0.93359-2.5273 0.83203-1.7148 1.8281-2.7734 2.6055-3.1445 0.21875-0.10547 0.42188-0.16016 0.59375-0.15234 0.0625 0.003907 0.12109 0.011719 0.17969 0.027344l0.60938 0.16406c-0.68359 0.61719-1.3281 1.457-1.8945 2.4688-0.30469 0.54687-0.58594 1.1406-0.83594 1.7773-0.21875 0.57422-0.42187 1.1797-0.59766 1.8203zm6.9727 1.9023c-0.79687 2.9062-2.1445 4.7617-3.2109 5.4844-0.34766 0.23438-0.66406 0.35156-0.92578 0.34375-0.0625-0.003906-0.12109-0.011718-0.17969-0.027343-0.30469-0.082031-0.57422-0.38281-0.78906-0.83594-0.15625-0.33594-0.28906-0.75-0.37109-1.2383-0.25-1.4453-0.10938-3.2617 0.39453-5.1133 0.23047-0.83984 0.50391-1.5859 0.80859-2.2461 0.74219-1.6328 1.6445-2.7266 2.4023-3.2383 0.23828-0.16016 0.46094-0.26172 0.66406-0.30859 0.09375-0.019531 0.17969-0.035156 0.26172-0.03125 0.0625 0.003906 0.12109 0.011719 0.17969 0.027344 0.29297 0.082031 0.56641 0.37891 0.78516 0.84766 0.55859 1.1836 0.75781 3.4922-0.019532 6.3359zm-1.9648-9.5508-1.6914-0.46484 19.727-28.875c0.23438 0.39063 0.53125 0.71484 0.88281 0.94531l0.10547 0.55078zm2.8789-0.73047 12.34-18.062 5.8984 1.8945 1.5234 7.957c-1.0547 1.2617-6.0547 6.3047-19.762 8.2109zm18.223-26.68 0.15234-0.22656 0.76562 0.21094c0.17969 0.050781 0.36719 0.078125 0.55469 0.082031 0.074218 0.003906 0.15234-0.003906 0.22656-0.007812l3.5273 18.426c-0.46094 0.64062-0.89062 1.3867-1.2656 2.2148zm6.1172 26.289c-0.19922 1.3906-0.20312 2.7188-0.007813 3.8711 0.058594 0.33984 0.13672 0.65625 0.22656 0.95312l-0.61719-0.16797c-0.80469-0.21875-1.4688-2.043-1.2227-4.6953 0.058594-0.62891 0.16797-1.3047 0.33984-2.0195 0.035156-0.15625 0.070312-0.3125 0.11719-0.47266 0.23828-0.87109 0.52734-1.6445 0.84375-2.3281 0.47656-1.0234 1.0156-1.8359 1.5352-2.4102 0.66016-0.73047 1.2969-1.1016 1.7539-1.0859 0.0625 0.003906 0.12109 0.011718 0.17969 0.027344l0.60938 0.16797c-0.78906 0.71484-1.5273 1.7266-2.1484 2.9531-0.46875 0.92188-0.87109 1.9688-1.1836 3.1094-0.19141 0.70703-0.33203 1.4102-0.42578 2.0977zm7.4023-0.1875c-0.79687 2.9062-2.1445 4.7617-3.2109 5.4805-0.34766 0.23438-0.66406 0.35156-0.92578 0.34375-0.0625 0-0.12109-0.011719-0.17969-0.027343-0.30469-0.082032-0.57422-0.38281-0.78906-0.83594-0.15625-0.33594-0.28516-0.75-0.37109-1.2383-0.25-1.4453-0.10938-3.2617 0.39453-5.1133 0.79688-2.9062 2.1445-4.7617 3.2109-5.4805 0.34766-0.23438 0.66406-0.35156 0.92578-0.34375 0.0625 0.003906 0.12109 0.011719 0.17969 0.027343 0.29297 0.078126 0.56641 0.37891 0.78516 0.84766 0.55469 1.1836 0.75391 3.4961-0.019532 6.3398z"/>
<text x="0.0" y="117.5" font-size="5.0" font-weight="bold" font-family="Arbeit Regular, Helvetica, Arial-Unicode, Arial, Sans-serif" fill="#000000">Created by Jang Jeong Eui</text><text x="0.0" y="122.5" font-size="5.0" font-weight="bold" font-family="Arbeit Regular, Helvetica, Arial-Unicode, Arial, Sans-serif" fill="#000000">from Noun Project</text></svg>