<?xml version="1.0" encoding="utf-8"?>
<!-- Generator: Adobe Illustrator 19.0.0, SVG Export Plug-In . SVG Version: 6.00 Build 0)  -->
<svg version="1.1" id="Layer_1" xmlns="http://www.w3.org/2000/svg" xmlns:xlink="http://www.w3.org/1999/xlink" x="0px" y="0px"
	 viewBox="-77 169 456 456" style="enable-background:new -77 169 456 456;" xml:space="preserve">
<style type="text/css">
	.st0{fill:#00637C;}
</style>
<g id="Layer_3">
	<rect x="-77" y="169" class="st0" width="456" height="456"/>
</g>
<g id="Layer_2">
	<path d="M269.4,487.8c-33.7,0-61.1,27-61.1,60.4c0,33.3,27.4,60.4,61.1,60.4s61.1-27,61.1-60.4S303.2,487.8,269.4,487.8z
		 M269.4,568.3c-11.2,0-20.4-9-20.4-20.1s9.1-20.1,20.4-20.1c11.2,0,20.4,9,20.4,20.1S280.7,568.3,269.4,568.3z M65.8,487.8
		c-33.7,0-61.1,27-61.1,60.4c0,33.3,27.4,60.4,61.1,60.4s61.1-27,61.1-60.4S99.5,487.8,65.8,487.8z M65.8,568.3
		c-11.2,0-20.4-9-20.4-20.1s9.1-20.1,20.4-20.1s20.4,9,20.4,20.1C86.1,559.3,77,568.3,65.8,568.3z M330.5,336.9
		c-0.1-72.2-59.3-130.7-132.4-130.8h-10.2c-11.2,0-20.4,9-20.4,20.1v100.6h-132L10,259.4c-3-7.9-10.6-13.1-19.1-13.1h-47.5
		c-11.2,0-20.4,9-20.4,20.1s9.1,20.1,20.4,20.1h33.4l25.5,67.8l0,0l10.5,27.6v1.8c19.4,51,69.1,84.6,124.2,83.9h61.1
		c73,0.1,132.3-58.3,132.4-130.4C330.5,337.1,330.5,337,330.5,336.9z M262.9,400.9c-17.1,17-40.5,26.6-64.8,26.6H137
		c-37.2,0.1-70.8-22.2-84.7-56.4c-0.1-0.4-0.1-0.8,0-1.2l-1.6-2.8h233.8C280.1,379.8,272.7,391.4,262.9,400.9z M208.3,326.8v-80.5
		c43,4.4,77,38,81.5,80.5H208.3z"/>
</g>
</svg>
